<svg width="460" height="60" viewBox="0 0 460 60" fill="none" xmlns="http://www.w3.org/2000/svg">
<path d="M0.94 39.28C0.94 36.0133 1.31333 32.8167 2.06 29.69C2.85333 26.5167 3.95 23.53 5.35 20.73C6.75 17.8833 8.40667 15.2933 10.32 12.96C12.28 10.58 14.4033 8.52666 16.69 6.8C19.0233 5.07333 21.4967 3.74333 24.11 2.81C26.7233 1.83 29.4067 1.34 32.16 1.34C35.38 1.34 37.8767 2.01666 39.65 3.37C41.47 4.72333 42.38 6.61333 42.38 9.04C42.38 9.97333 42.24 10.93 41.96 11.91C41.7267 12.89 41.3533 13.87 40.84 14.85C40.3733 15.7833 39.8133 16.6933 39.16 17.58C38.5067 18.4667 37.7833 19.2367 36.99 19.89C35.7767 19.7033 34.7267 19.1667 33.84 18.28C32.9533 17.3467 32.3933 16.2733 32.16 15.06C33.7933 13.7067 35.0767 12.3067 36.01 10.86C36.99 9.36667 37.48 8.01333 37.48 6.8C37.48 4.74666 36.1967 3.72 33.63 3.72C32.5567 3.72 31.4367 3.95333 30.27 4.42C29.15 4.84 28.0067 5.44666 26.84 6.24C25.6733 7.03333 24.53 7.99 23.41 9.11C22.3367 10.23 21.3333 11.4667 20.4 12.82C13.9133 22.1533 10.67 31.6967 10.67 41.45C10.67 44.9033 11.2067 47.68 12.28 49.78C13.3533 51.88 14.7767 53.1167 16.55 53.49C18.5567 53.0233 21.1 51.74 24.18 49.64C27.26 47.54 30.62 44.81 34.26 41.45C34.7267 41.9167 35.0067 42.4067 35.1 42.92C33.7467 44.6933 32.3467 46.3967 30.9 48.03C29.4533 49.6633 28.0067 51.1567 26.56 52.51C25.16 53.8633 23.76 55.0533 22.36 56.08C21.0067 57.1067 19.7467 57.9 18.58 58.46C12.7933 58.3667 8.40667 56.71 5.42 53.49C2.43333 50.27 0.94 45.5333 0.94 39.28ZM67.1961 5.89C65.1428 8.64333 63.2761 11.6767 61.5961 14.99C59.9161 18.3033 58.4694 21.71 57.2561 25.21C56.0894 28.6633 55.1794 32.0933 54.5261 35.5C53.9194 38.86 53.6161 42.01 53.6161 44.95C53.6161 48.59 54.1528 51.2267 55.2261 52.86C56.2994 54.4933 58.1428 55.31 60.7561 55.31C63.7894 55.31 66.4494 54.26 68.7361 52.16C71.0228 50.0133 73.1694 47.0733 75.1761 43.34C76.4828 40.9133 77.6028 38.2533 78.5361 35.36C79.4694 32.4667 80.2161 29.5033 80.7761 26.47C81.3828 23.39 81.8261 20.31 82.1061 17.23C82.3861 14.1033 82.5261 11.1167 82.5261 8.27C82.5261 6.45 82.5028 5.12 82.4561 4.28C82.4094 3.44 82.3394 2.76333 82.2461 2.25C82.3861 2.25 82.7361 2.29666 83.2961 2.39C83.8561 2.48333 84.4861 2.6 85.1861 2.74C85.9328 2.88 86.6561 3.06666 87.3561 3.3C88.1028 3.53333 88.7328 3.79 89.2461 4.07C89.0128 7.61666 88.5694 11.28 87.9161 15.06C87.3094 18.84 86.4928 22.5733 85.4661 26.26C84.4394 29.9467 83.2494 33.4933 81.8961 36.9C80.5428 40.3067 79.0261 43.3633 77.3461 46.07C74.8728 50.0833 72.0961 53.21 69.0161 55.45C65.9361 57.7367 62.2961 58.88 58.0961 58.88C53.8028 58.88 50.4661 57.62 48.0861 55.1C45.7061 52.6267 44.5161 48.8467 44.5161 43.76C44.5161 40.82 44.8428 37.5067 45.4961 33.82C46.1494 30.0867 47.0128 26.3067 48.0861 22.48C49.2061 18.6067 50.4894 14.85 51.9361 11.21C53.3828 7.52333 54.8994 4.23333 56.4861 1.34C57.2794 1.38666 58.2128 1.55 59.2861 1.83C60.3594 2.11 61.4094 2.48333 62.4361 2.95C63.4628 3.37 64.3961 3.86 65.2361 4.42C66.1228 4.93333 66.7761 5.42333 67.1961 5.89ZM136.725 14.43C136.725 16.67 136.211 18.7933 135.185 20.8C134.205 22.76 132.828 24.5333 131.055 26.12C129.281 27.66 127.205 28.9667 124.825 30.04C122.445 31.1133 119.855 31.8367 117.055 32.21C117.755 34.31 118.595 36.48 119.575 38.72C120.601 40.9133 121.698 43.0367 122.865 45.09C124.031 47.1433 125.245 49.0333 126.505 50.76C127.765 52.4867 129.001 53.91 130.215 55.03C129.981 55.4967 129.631 55.9633 129.165 56.43C128.745 56.8967 128.231 57.3167 127.625 57.69C127.065 58.11 126.458 58.4367 125.805 58.67C125.198 58.95 124.615 59.09 124.055 59.09C123.028 59.09 122.048 58.6 121.115 57.62C120.181 56.64 119.225 55.1 118.245 53C117.311 50.8533 116.308 48.1 115.235 44.74C114.208 41.3333 113.065 37.25 111.805 32.49C111.291 32.49 110.778 32.49 110.265 32.49C109.751 32.49 109.355 32.4433 109.075 32.35C108.748 32.1633 108.398 31.8367 108.025 31.37C106.765 34.0767 105.645 36.62 104.665 39C103.685 41.38 102.798 43.69 102.005 45.93C101.258 48.1233 100.581 50.27 99.9747 52.37C99.4147 54.4233 98.9247 56.5233 98.5047 58.67C96.918 58.2967 95.5414 57.62 94.3747 56.64C93.208 55.66 92.1114 54.2833 91.0847 52.51C91.2714 52.09 91.458 51.6933 91.6447 51.32C91.878 50.9 92.158 50.34 92.4847 49.64C92.8114 48.8933 93.208 47.96 93.6747 46.84C94.188 45.72 94.8414 44.2267 95.6347 42.36C96.4747 40.4933 97.4547 38.2067 98.5747 35.5C99.7414 32.7933 101.141 29.5033 102.775 25.63C103.521 23.9033 104.151 22.3867 104.665 21.08C105.225 19.7733 105.715 18.5367 106.135 17.37C106.555 16.1567 106.928 14.9667 107.255 13.8C107.628 12.5867 108.001 11.21 108.375 9.67C106.228 10.4167 104.221 11.2567 102.355 12.19C100.535 13.0767 99.018 14.0333 97.8047 15.06C97.3847 14.78 96.9414 14.36 96.4747 13.8C96.0547 13.24 95.658 12.6333 95.2847 11.98C94.9114 11.28 94.5847 10.58 94.3047 9.88C94.0247 9.18 93.8614 8.55 93.8147 7.99C95.2147 7.05666 96.918 6.19333 98.9247 5.4C100.978 4.60667 103.148 3.93 105.435 3.37C107.721 2.76333 110.055 2.29666 112.435 1.97C114.815 1.64333 117.031 1.48 119.085 1.48C124.685 1.48 129.025 2.64666 132.105 4.98C135.185 7.26666 136.725 10.4167 136.725 14.43ZM119.645 8.55C119.318 8.97 118.805 9.81 118.105 11.07C117.405 12.33 116.588 13.8467 115.655 15.62C114.768 17.3467 113.811 19.2367 112.785 21.29C111.805 23.3433 110.848 25.3733 109.915 27.38C113.415 27.38 116.635 27.0533 119.575 26.4C122.515 25.7467 125.058 24.8367 127.205 23.67C129.351 22.4567 131.008 21.0567 132.175 19.47C133.388 17.8367 133.995 16.04 133.995 14.08C133.995 11.7467 133.155 9.97333 131.475 8.76C129.795 7.5 127.205 6.87 123.705 6.87C122.911 6.87 122.118 6.91666 121.325 7.01C120.531 7.05667 119.691 7.12666 118.805 7.22L119.645 8.55ZM163.563 49.01C164.73 51.0167 165.313 52.9533 165.313 54.82C165.313 55.24 165.266 55.6133 165.173 55.94C165.126 56.3133 165.056 56.6867 164.963 57.06C164.17 56.9667 163.33 56.8967 162.443 56.85C161.603 56.8033 160.716 56.78 159.783 56.78C158.663 56.78 157.52 56.8033 156.353 56.85C155.233 56.9433 153.973 57.06 152.573 57.2C151.173 57.34 149.61 57.5267 147.883 57.76C146.156 57.9933 144.15 58.2967 141.863 58.67C140.79 58.2967 139.716 57.55 138.643 56.43C137.57 55.3567 136.566 54.05 135.633 52.51C136.1 51.4833 136.683 50.2233 137.383 48.73C138.083 47.19 138.9 45.3467 139.833 43.2C140.766 41.0067 141.793 38.4633 142.913 35.57C144.08 32.63 145.316 29.2467 146.623 25.42C147.463 22.9 148.186 20.6833 148.793 18.77C149.4 16.8567 149.936 15.0133 150.403 13.24C150.916 11.42 151.406 9.53 151.873 7.57C152.34 5.61 152.853 3.34666 153.413 0.779996C155.28 1.15333 156.89 1.85333 158.243 2.88C159.643 3.86 160.973 5.28333 162.233 7.15C161.86 7.75667 161.37 8.73666 160.763 10.09C160.156 11.4433 159.433 13.1 158.593 15.06C157.8 16.9733 156.913 19.1667 155.933 21.64C154.953 24.0667 153.926 26.68 152.853 29.48C151.826 32.2333 150.823 34.8233 149.843 37.25C148.863 39.6767 147.976 41.87 147.183 43.83C146.436 45.79 145.83 47.47 145.363 48.87C144.896 50.27 144.663 51.32 144.663 52.02C145.41 51.9733 146.086 51.9267 146.693 51.88C147.3 51.8333 147.93 51.7633 148.583 51.67C149.236 51.53 149.936 51.39 150.683 51.25C151.476 51.0633 152.41 50.83 153.483 50.55C154.416 50.3167 155.28 50.13 156.073 49.99C156.866 49.8033 157.636 49.6633 158.383 49.57C159.176 49.43 159.97 49.3367 160.763 49.29C161.603 49.1967 162.536 49.1033 163.563 49.01ZM191.791 28.85C195.291 25.0233 198.417 20.9633 201.171 16.67C203.971 12.3767 206.561 7.54667 208.941 2.18C210.154 2.32 211.321 2.64666 212.441 3.16C213.561 3.67333 214.447 4.25666 215.101 4.91C212.534 7.99 210.201 10.79 208.101 13.31C206.047 15.83 204.157 18.21 202.431 20.45C200.704 22.6433 199.094 24.7667 197.601 26.82C196.154 28.8267 194.731 30.8567 193.331 32.91C192.631 35.29 191.977 37.6933 191.371 40.12C190.764 42.5467 190.227 44.88 189.761 47.12C189.294 49.3133 188.921 51.3433 188.641 53.21C188.407 55.1233 188.291 56.7567 188.291 58.11C187.777 58.11 186.961 57.9933 185.841 57.76C184.721 57.5733 183.577 57.34 182.411 57.06C181.244 56.78 180.171 56.5 179.191 56.22C178.257 55.94 177.697 55.7067 177.511 55.52C178.257 54.26 178.981 52.72 179.681 50.9C180.427 49.0333 181.151 47.0967 181.851 45.09C182.551 43.0367 183.227 40.9833 183.881 38.93C184.534 36.83 185.141 34.8933 185.701 33.12C184.534 29.48 183.391 26.0733 182.271 22.9C181.197 19.68 180.147 16.7867 179.121 14.22C178.094 11.6067 177.114 9.36667 176.181 7.5C175.247 5.63333 174.361 4.21 173.521 3.23C173.987 3.04333 174.687 2.85666 175.621 2.67C176.601 2.48333 177.651 2.29666 178.771 2.11C179.937 1.92333 181.104 1.78333 182.271 1.69C183.484 1.55 184.557 1.45666 185.491 1.41C185.491 2.57666 185.584 4 185.771 5.68C186.004 7.36 186.284 9.15666 186.611 11.07C186.984 12.9833 187.404 14.92 187.871 16.88C188.337 18.84 188.804 20.6367 189.271 22.27C189.737 23.9033 190.181 25.3267 190.601 26.54C191.067 27.7067 191.464 28.4767 191.791 28.85ZM268.29 49.01C269.456 51.0167 270.04 52.9533 270.04 54.82C270.04 55.24 269.993 55.6133 269.9 55.94C269.853 56.3133 269.783 56.6867 269.69 57.06C268.896 56.9667 268.056 56.8967 267.17 56.85C266.33 56.8033 265.443 56.78 264.51 56.78C263.39 56.78 262.246 56.8033 261.08 56.85C259.96 56.9433 258.7 57.06 257.3 57.2C255.9 57.34 254.336 57.5267 252.61 57.76C250.883 57.9933 248.876 58.2967 246.59 58.67C245.516 58.2967 244.443 57.55 243.37 56.43C242.296 55.3567 241.293 54.05 240.36 52.51C240.826 51.4833 241.41 50.2233 242.11 48.73C242.81 47.19 243.626 45.3467 244.56 43.2C245.493 41.0067 246.52 38.4633 247.64 35.57C248.806 32.63 250.043 29.2467 251.35 25.42C252.19 22.9 252.913 20.6833 253.52 18.77C254.126 16.8567 254.663 15.0133 255.13 13.24C255.643 11.42 256.133 9.53 256.6 7.57C257.066 5.61 257.58 3.34666 258.14 0.779996C260.006 1.15333 261.616 1.85333 262.97 2.88C264.37 3.86 265.7 5.28333 266.96 7.15C266.586 7.75667 266.096 8.73666 265.49 10.09C264.883 11.4433 264.16 13.1 263.32 15.06C262.526 16.9733 261.64 19.1667 260.66 21.64C259.68 24.0667 258.653 26.68 257.58 29.48C256.553 32.2333 255.55 34.8233 254.57 37.25C253.59 39.6767 252.703 41.87 251.91 43.83C251.163 45.79 250.556 47.47 250.09 48.87C249.623 50.27 249.39 51.32 249.39 52.02C250.136 51.9733 250.813 51.9267 251.42 51.88C252.026 51.8333 252.656 51.7633 253.31 51.67C253.963 51.53 254.663 51.39 255.41 51.25C256.203 51.0633 257.136 50.83 258.21 50.55C259.143 50.3167 260.006 50.13 260.8 49.99C261.593 49.8033 262.363 49.6633 263.11 49.57C263.903 49.43 264.696 49.3367 265.49 49.29C266.33 49.1967 267.263 49.1033 268.29 49.01ZM307.264 2.04C308.15 2.41333 309.06 2.90333 309.994 3.51C310.927 4.07 311.79 4.65333 312.584 5.26C313.377 5.86666 314.03 6.47333 314.544 7.08C315.104 7.64 315.407 8.10666 315.454 8.48C314.66 8.29333 313.867 8.17666 313.074 8.13C312.28 8.03667 311.557 7.99 310.904 7.99C308.804 7.99 306.704 8.50333 304.604 9.53C302.55 10.5567 300.59 11.9567 298.724 13.73C296.857 15.5033 295.13 17.58 293.544 19.96C291.957 22.34 290.58 24.8833 289.414 27.59C288.294 30.2967 287.407 33.0967 286.754 35.99C286.1 38.8833 285.774 41.73 285.774 44.53C285.774 48.17 286.38 50.8767 287.594 52.65C288.807 54.4233 290.58 55.31 292.914 55.31C294.034 55.31 295.247 55.0767 296.554 54.61C297.86 54.19 299.19 53.5833 300.544 52.79C301.897 51.9967 303.227 51.04 304.534 49.92C305.84 48.8 307.054 47.5633 308.174 46.21C309.807 44.25 311.277 42.0333 312.584 39.56C313.89 37.04 314.987 34.38 315.874 31.58C316.807 28.78 317.507 25.91 317.974 22.97C318.487 19.9833 318.744 17.0667 318.744 14.22C318.744 13.1 318.72 12.1667 318.674 11.42C318.627 10.6267 318.557 9.97333 318.464 9.46C318.417 8.9 318.37 8.45667 318.324 8.13C318.277 7.80333 318.23 7.52333 318.184 7.29C318.744 7.57 319.35 7.92 320.004 8.34C320.704 8.71333 321.334 9.29666 321.894 10.09C322.5 10.8367 322.99 11.84 323.364 13.1C323.784 14.36 323.994 15.9933 323.994 18C323.994 21.2667 323.597 24.4867 322.804 27.66C322.057 30.7867 320.984 33.7733 319.584 36.62C318.23 39.4667 316.62 42.1267 314.754 44.6C312.887 47.0733 310.88 49.2433 308.734 51.11C305.934 53.5833 302.947 55.4967 299.774 56.85C296.6 58.2033 293.544 58.88 290.604 58.88C286.31 58.88 283.02 57.5033 280.734 54.75C278.494 52.0433 277.374 48.03 277.374 42.71C277.374 39.8633 277.677 36.8533 278.284 33.68C278.937 30.5067 279.824 27.38 280.944 24.3C282.11 21.22 283.487 18.3033 285.074 15.55C286.66 12.75 288.387 10.3 290.254 8.2C292.167 6.05333 294.197 4.35 296.344 3.09C298.537 1.83 300.777 1.2 303.064 1.2C303.81 1.2 304.51 1.27 305.164 1.41C305.817 1.50333 306.517 1.71333 307.264 2.04ZM328.45 39.28C328.45 36.0133 328.823 32.8167 329.57 29.69C330.363 26.5167 331.46 23.53 332.86 20.73C334.26 17.8833 335.916 15.2933 337.83 12.96C339.79 10.58 341.913 8.52666 344.2 6.8C346.533 5.07333 349.006 3.74333 351.62 2.81C354.233 1.83 356.916 1.34 359.67 1.34C362.89 1.34 365.386 2.01666 367.16 3.37C368.98 4.72333 369.89 6.61333 369.89 9.04C369.89 9.97333 369.75 10.93 369.47 11.91C369.236 12.89 368.863 13.87 368.35 14.85C367.883 15.7833 367.323 16.6933 366.67 17.58C366.016 18.4667 365.293 19.2367 364.5 19.89C363.286 19.7033 362.236 19.1667 361.35 18.28C360.463 17.3467 359.903 16.2733 359.67 15.06C361.303 13.7067 362.586 12.3067 363.52 10.86C364.5 9.36667 364.99 8.01333 364.99 6.8C364.99 4.74666 363.706 3.72 361.14 3.72C360.066 3.72 358.946 3.95333 357.78 4.42C356.66 4.84 355.516 5.44666 354.35 6.24C353.183 7.03333 352.04 7.99 350.92 9.11C349.846 10.23 348.843 11.4667 347.91 12.82C341.423 22.1533 338.18 31.6967 338.18 41.45C338.18 44.9033 338.716 47.68 339.79 49.78C340.863 51.88 342.286 53.1167 344.06 53.49C346.066 53.0233 348.61 51.74 351.69 49.64C354.77 47.54 358.13 44.81 361.77 41.45C362.236 41.9167 362.516 42.4067 362.61 42.92C361.256 44.6933 359.856 46.3967 358.41 48.03C356.963 49.6633 355.516 51.1567 354.07 52.51C352.67 53.8633 351.27 55.0533 349.87 56.08C348.516 57.1067 347.256 57.9 346.09 58.46C340.303 58.3667 335.916 56.71 332.93 53.49C329.943 50.27 328.45 45.5333 328.45 39.28ZM384.136 30.81C387.029 26.5167 389.876 22.5733 392.676 18.98C395.523 15.34 398.229 12.2133 400.796 9.6C403.363 6.98666 405.719 4.95666 407.866 3.51C410.013 2.06333 411.879 1.34 413.466 1.34C414.073 1.34 414.726 1.57333 415.426 2.04C416.173 2.50666 416.849 3.11333 417.456 3.86C418.109 4.60666 418.646 5.42333 419.066 6.31C419.486 7.15 419.696 7.96666 419.696 8.76C416.803 9.69333 413.956 10.93 411.156 12.47C408.403 13.9633 405.743 15.7133 403.176 17.72C400.656 19.68 398.229 21.8733 395.896 24.3C393.609 26.7267 391.533 29.3167 389.666 32.07C390.413 33.9833 391.323 36.0367 392.396 38.23C393.516 40.3767 394.729 42.4767 396.036 44.53C397.343 46.5367 398.743 48.4033 400.236 50.13C401.729 51.8567 403.246 53.2333 404.786 54.26C404.553 54.7733 404.156 55.2633 403.596 55.73C403.036 56.1967 402.429 56.6167 401.776 56.99C401.123 57.41 400.423 57.7367 399.676 57.97C398.976 58.2033 398.323 58.32 397.716 58.32C396.503 58.32 395.383 57.7367 394.356 56.57C393.329 55.45 392.279 53.7467 391.206 51.46C390.179 49.1267 389.083 46.2567 387.916 42.85C386.796 39.3967 385.536 35.3833 384.136 30.81ZM373.566 58.67C371.793 58.25 370.323 57.5033 369.156 56.43C367.989 55.4033 366.916 54.0967 365.936 52.51C366.356 51.6233 366.846 50.4567 367.406 49.01C368.013 47.5633 368.736 45.79 369.576 43.69C370.416 41.5433 371.419 39 372.586 36.06C373.753 33.0733 375.106 29.5967 376.646 25.63C377.626 23.11 378.419 20.9867 379.026 19.26C379.679 17.5333 380.216 15.8533 380.636 14.22C381.103 12.54 381.546 10.6967 381.966 8.69C382.386 6.68333 382.876 4.14 383.436 1.06C385.396 1.43333 387.169 2.29666 388.756 3.65C390.389 5.00333 391.789 6.63666 392.956 8.55C392.443 9.20333 391.836 10.2067 391.136 11.56C390.483 12.8667 389.736 14.4533 388.896 16.32C388.056 18.1867 387.123 20.2633 386.096 22.55C385.069 24.8367 383.996 27.2633 382.876 29.83C380.356 35.43 378.373 40.5633 376.926 45.23C375.479 49.85 374.359 54.33 373.566 58.67ZM458.788 5.82C458.928 6.61333 459.021 7.17333 459.068 7.5C459.161 7.78 459.208 8.17666 459.208 8.69C459.208 10.23 458.858 11.6767 458.158 13.03C457.505 14.3367 456.595 15.27 455.428 15.83C454.495 14.57 453.351 13.4967 451.998 12.61C450.645 11.6767 449.151 10.93 447.518 10.37C445.931 9.76333 444.275 9.32 442.548 9.04C440.821 8.76 439.141 8.62 437.508 8.62C435.875 8.62 434.335 8.76 432.888 9.04C431.488 9.27333 430.228 9.62333 429.108 10.09C428.035 10.51 427.171 11.0467 426.518 11.7C425.911 12.3533 425.608 13.1 425.608 13.94C425.748 14.9667 426.378 16.0167 427.498 17.09C428.618 18.1167 429.995 19.1433 431.628 20.17C433.261 21.15 435.058 22.13 437.018 23.11C439.025 24.09 440.985 25.0233 442.898 25.91C445.278 27.03 447.331 28.08 449.058 29.06C450.785 29.9933 452.208 31.0433 453.328 32.21C454.448 33.33 455.288 34.6133 455.848 36.06C456.408 37.5067 456.688 39.2567 456.688 41.31C456.688 43.69 456.291 45.93 455.498 48.03C454.705 50.0833 453.538 51.88 451.998 53.42C450.505 54.96 448.685 56.15 446.538 56.99C444.391 57.8767 441.988 58.32 439.328 58.32C436.715 58.32 433.891 57.9233 430.858 57.13C427.825 56.3367 424.978 55.24 422.318 53.84C419.705 52.4867 417.511 50.9233 415.738 49.15C414.011 47.33 413.148 45.4167 413.148 43.41C413.148 42.4767 413.405 41.2867 413.918 39.84C414.478 38.3933 415.458 36.8767 416.858 35.29C416.998 36.69 417.745 38.3467 419.098 40.26C420.498 42.1733 422.575 43.9467 425.328 45.58C427.895 47.0733 430.531 48.17 433.238 48.87C435.991 49.5233 438.558 49.85 440.938 49.85C443.551 49.85 445.675 49.5233 447.308 48.87C448.941 48.2167 450.225 47.4467 451.158 46.56C452.091 45.6267 452.745 44.6933 453.118 43.76C453.491 42.8267 453.701 42.08 453.748 41.52C453.701 40.5867 453.258 39.7 452.418 38.86C451.625 37.9733 450.528 37.1333 449.128 36.34C447.775 35.5 446.188 34.66 444.368 33.82C442.548 32.98 440.658 32.14 438.698 31.3C435.758 29.9933 433.215 28.78 431.068 27.66C428.968 26.4933 427.218 25.3267 425.818 24.16C424.465 22.9467 423.461 21.6867 422.808 20.38C422.201 19.0733 421.898 17.58 421.898 15.9C421.898 13.2867 422.691 10.8133 424.278 8.48C425.865 6.14666 428.151 4.37333 431.138 3.16C432.631 2.50667 434.218 2.04 435.898 1.76C437.625 1.48 439.305 1.34 440.938 1.34C444.018 1.34 447.028 1.76 449.968 2.6C452.908 3.44 455.848 4.51333 458.788 5.82Z" fill="#393131"/>
</svg>
